<?xml version="1.0" encoding="utf-8"?>
<!-- Generator: Adobe Illustrator 27.5.0, SVG Export Plug-In . SVG Version: 6.00 Build 0)  -->
<svg version="1.1" id="Layer_1" xmlns="http://www.w3.org/2000/svg" xmlns:xlink="http://www.w3.org/1999/xlink" x="0px" y="0px"
	 viewBox="0 0 1240.2 655.1" style="enable-background:new 0 0 1240.2 655.1;" xml:space="preserve">
<style type="text/css">
	.st0{fill:#FFFFFF;stroke:#231F20;stroke-miterlimit:10;}
	.st1{fill:none;stroke:#333333;stroke-miterlimit:10;stroke-dasharray:4,2;}
	.st2{fill:#FED3A4;}
	.st3{fill:#231F20;}
	.st4{font-family:'Roboto-Medium';}
	.st5{font-size:12px;}
	.st6{fill:#A8DEEF;}
	.st7{fill:none;stroke:#555555;stroke-linecap:round;stroke-linejoin:round;stroke-miterlimit:10;}
	.st8{fill:#FFFFFF;}
</style>
<rect x="445.1" y="35.5" class="st0" width="351.8" height="554.2"/>
<rect x="41.1" y="35.5" class="st0" width="351.8" height="318.2"/>
<path class="st1" d="M1024.9,291.6c0,164.8-180.8,339.9-403.9,339.9S217,456.4,217,291.6"/>
<path class="st1" d="M1024.9,244.3c0,0-180.8,148.7-403.9,148.7S217,244.3,217,244.3"/>
<path class="st1" d="M737.6,374.1c0,0-13.8-76.2-55.6-118"/>
<path class="st1" d="M328.7,200.4c0,0,235.6-94.6,603.9,0"/>
<path class="st2" d="M747.2,570.3H575.3c-7.3,0-13.2-5.9-13.2-13.2V366.9c0-7.3,5.9-13.2,13.2-13.2h171.9c7.3,0,13.2,5.9,13.2,13.2
	v190.2C760.4,564.4,754.5,570.3,747.2,570.3z"/>
<text transform="matrix(1 0 0 1 588.4842 417.055)"><tspan x="0" y="0" class="st3 st4 st5">shopping-analytics-service</tspan><tspan x="38.6" y="14.4" class="st3 st4 st5">Akka Cluster</tspan></text>
<rect x="849" y="35.5" class="st0" width="351.8" height="318.2"/>
<path class="st6" d="M1151.1,318.7H898.7c-7.3,0-13.2-5.9-13.2-13.2V95.3c0-7.3,5.9-13.2,13.2-13.2h252.4c7.3,0,13.2,5.9,13.2,13.2
	v210.2C1164.3,312.8,1158.4,318.7,1151.1,318.7z"/>
<path class="st6" d="M343.2,318.7H90.9c-7.3,0-13.2-5.9-13.2-13.2V95.3c0-7.3,5.9-13.2,13.2-13.2h252.4c7.3,0,13.2,5.9,13.2,13.2
	v210.2C356.4,312.8,350.5,318.7,343.2,318.7z"/>
<text transform="matrix(1 0 0 1 158.1671 148.2468)"><tspan x="0" y="0" class="st3 st4 st5">shopping-cart-service</tspan><tspan x="24.7" y="14.4" class="st3 st4 st5">Akka Cluster</tspan></text>
<text transform="matrix(1 0 0 1 53.6121 60.4746)" class="st4 st5">region: us-west-1</text>
<g>
	<g>
		<path class="st7" d="M214.6,115.6h14.1c1,0,1.9-0.8,2.1-1.8l2-8.7c0.1-0.9-0.6-1.8-1.5-1.8h-7.6h0.3h-13.4"/>
		<path class="st7" d="M201.3,99h4c0.5,0,1,0.4,1.1,0.9l3.1,13.3"/>
		<polyline class="st7" points="209.3,112.5 211.1,119.8 211.2,119.8 		"/>
		<path class="st7" d="M215.9,124.8c0,1.2-1,2.2-2.2,2.2c-1.2,0-2.2-1-2.2-2.2c0-1.2,1-2.2,2.2-2.2
			C214.9,122.6,215.9,123.6,215.9,124.8z"/>
		<path class="st7" d="M228.4,124.8c0,1.2-1,2.2-2.2,2.2c-1.2,0-2.2-1-2.2-2.2c0-1.2,1-2.2,2.2-2.2
			C227.4,122.6,228.4,123.6,228.4,124.8z"/>
		<line class="st7" x1="211.2" y1="119.8" x2="228.4" y2="119.8"/>
	</g>
	<g>
		<path class="st7" d="M214.6,115.6h14.1c1,0,1.9-0.8,2.1-1.8l2-8.7c0.1-0.9-0.6-1.8-1.5-1.8h-7.6h0.3h-13.4"/>
		<path class="st7" d="M201.3,99h4c0.5,0,1,0.4,1.1,0.9l3.1,13.3"/>
		<polyline class="st7" points="209.3,112.5 211.1,119.8 211.2,119.8 		"/>
		<path class="st7" d="M215.9,124.8c0,1.2-1,2.2-2.2,2.2c-1.2,0-2.2-1-2.2-2.2c0-1.2,1-2.2,2.2-2.2
			C214.9,122.6,215.9,123.6,215.9,124.8z"/>
		<path class="st7" d="M228.4,124.8c0,1.2-1,2.2-2.2,2.2c-1.2,0-2.2-1-2.2-2.2c0-1.2,1-2.2,2.2-2.2
			C227.4,122.6,228.4,123.6,228.4,124.8z"/>
		<line class="st7" x1="211.2" y1="119.8" x2="228.4" y2="119.8"/>
	</g>
</g>
<g>
	<circle class="st8" cx="172.2" cy="200.4" r="25.1"/>
	<circle class="st8" cx="261.9" cy="200.4" r="25.1"/>
	<circle class="st8" cx="261.9" cy="200.4" r="25.1"/>
</g>
<g>
	<circle class="st8" cx="217" cy="256.1" r="25.1"/>
</g>
<g>
	<circle class="st8" cx="616.4" cy="469.7" r="25.1"/>
	<circle class="st8" cx="706" cy="469.7" r="25.1"/>
	<circle class="st8" cx="706" cy="469.7" r="25.1"/>
</g>
<g>
	<circle class="st8" cx="661.2" cy="521.3" r="25.1"/>
</g>
<path class="st6" d="M747.2,318.7H494.8c-7.3,0-13.2-5.9-13.2-13.2V95.3c0-7.3,5.9-13.2,13.2-13.2h252.4c7.3,0,13.2,5.9,13.2,13.2
	v210.2C760.4,312.8,754.5,318.7,747.2,318.7z"/>
<text transform="matrix(1 0 0 1 562.1066 148.2468)"><tspan x="0" y="0" class="st3 st4 st5">shopping-cart-service</tspan><tspan x="24.7" y="14.4" class="st3 st4 st5">Akka Cluster</tspan></text>
<text transform="matrix(1 0 0 1 457.5515 60.4746)" class="st4 st5">region: us-east-1</text>
<g>
	<g>
		<path class="st7" d="M618.5,115.6h14.1c1,0,1.9-0.8,2.1-1.8l2-8.7c0.1-0.9-0.6-1.8-1.5-1.8h-7.6h0.3h-13.4"/>
		<path class="st7" d="M605.2,99h4c0.5,0,1,0.4,1.1,0.9l3.1,13.3"/>
		<polyline class="st7" points="613.2,112.5 615.1,119.8 615.1,119.8 		"/>
		<path class="st7" d="M619.8,124.8c0,1.2-1,2.2-2.2,2.2c-1.2,0-2.2-1-2.2-2.2c0-1.2,1-2.2,2.2-2.2
			C618.8,122.6,619.8,123.6,619.8,124.8z"/>
		<path class="st7" d="M632.4,124.8c0,1.2-1,2.2-2.2,2.2c-1.2,0-2.2-1-2.2-2.2c0-1.2,1-2.2,2.2-2.2
			C631.4,122.6,632.4,123.6,632.4,124.8z"/>
		<line class="st7" x1="615.1" y1="119.8" x2="632.4" y2="119.8"/>
	</g>
	<g>
		<path class="st7" d="M618.5,115.6h14.1c1,0,1.9-0.8,2.1-1.8l2-8.7c0.1-0.9-0.6-1.8-1.5-1.8h-7.6h0.3h-13.4"/>
		<path class="st7" d="M605.2,99h4c0.5,0,1,0.4,1.1,0.9l3.1,13.3"/>
		<polyline class="st7" points="613.2,112.5 615.1,119.8 615.1,119.8 		"/>
		<path class="st7" d="M619.8,124.8c0,1.2-1,2.2-2.2,2.2c-1.2,0-2.2-1-2.2-2.2c0-1.2,1-2.2,2.2-2.2
			C618.8,122.6,619.8,123.6,619.8,124.8z"/>
		<path class="st7" d="M632.4,124.8c0,1.2-1,2.2-2.2,2.2c-1.2,0-2.2-1-2.2-2.2c0-1.2,1-2.2,2.2-2.2
			C631.4,122.6,632.4,123.6,632.4,124.8z"/>
		<line class="st7" x1="615.1" y1="119.8" x2="632.4" y2="119.8"/>
	</g>
</g>
<g>
	<circle class="st8" cx="576.2" cy="200.4" r="25.1"/>
	<circle class="st8" cx="665.8" cy="200.4" r="25.1"/>
	<circle class="st8" cx="665.8" cy="200.4" r="25.1"/>
</g>
<g>
	<g>
		<circle class="st8" cx="621" cy="256.1" r="25.1"/>
	</g>
	<g>
		<circle class="st8" cx="534.8" cy="256.1" r="25.1"/>
	</g>
	<g>
		<circle class="st8" cx="707.1" cy="256.1" r="25.1"/>
	</g>
</g>
<g>
	<g>
		<circle class="st8" cx="1024.9" cy="256.1" r="25.1"/>
	</g>
	<g>
		<circle class="st8" cx="938.8" cy="256.1" r="25.1"/>
	</g>
	<g>
		<circle class="st8" cx="1111.1" cy="256.1" r="25.1"/>
	</g>
</g>
<text transform="matrix(1 0 0 1 966.046 148.2468)"><tspan x="0" y="0" class="st3 st4 st5">shopping-cart-service</tspan><tspan x="24.7" y="14.4" class="st3 st4 st5">Akka Cluster</tspan></text>
<text transform="matrix(1 0 0 1 861.4909 60.4746)" class="st4 st5">region: eu-central-1</text>
<g>
	<g>
		<path class="st7" d="M1022.5,115.6h14.1c1,0,1.9-0.8,2.1-1.8l2-8.7c0.1-0.9-0.6-1.8-1.5-1.8h-7.6h0.3h-13.4"/>
		<path class="st7" d="M1009.2,99h4c0.5,0,1,0.4,1.1,0.9l3.1,13.3"/>
		<polyline class="st7" points="1017.2,112.5 1019,119.8 1019.1,119.8 		"/>
		<path class="st7" d="M1023.8,124.8c0,1.2-1,2.2-2.2,2.2c-1.2,0-2.2-1-2.2-2.2c0-1.2,1-2.2,2.2-2.2
			C1022.8,122.6,1023.8,123.6,1023.8,124.8z"/>
		<path class="st7" d="M1036.3,124.8c0,1.2-1,2.2-2.2,2.2c-1.2,0-2.2-1-2.2-2.2c0-1.2,1-2.2,2.2-2.2
			C1035.3,122.6,1036.3,123.6,1036.3,124.8z"/>
		<line class="st7" x1="1019.1" y1="119.8" x2="1036.3" y2="119.8"/>
	</g>
	<g>
		<path class="st7" d="M1022.5,115.6h14.1c1,0,1.9-0.8,2.1-1.8l2-8.7c0.1-0.9-0.6-1.8-1.5-1.8h-7.6h0.3h-13.4"/>
		<path class="st7" d="M1009.2,99h4c0.5,0,1,0.4,1.1,0.9l3.1,13.3"/>
		<polyline class="st7" points="1017.2,112.5 1019,119.8 1019.1,119.8 		"/>
		<path class="st7" d="M1023.8,124.8c0,1.2-1,2.2-2.2,2.2c-1.2,0-2.2-1-2.2-2.2c0-1.2,1-2.2,2.2-2.2
			C1022.8,122.6,1023.8,123.6,1023.8,124.8z"/>
		<path class="st7" d="M1036.3,124.8c0,1.2-1,2.2-2.2,2.2c-1.2,0-2.2-1-2.2-2.2c0-1.2,1-2.2,2.2-2.2
			C1035.3,122.6,1036.3,123.6,1036.3,124.8z"/>
		<line class="st7" x1="1019.1" y1="119.8" x2="1036.3" y2="119.8"/>
	</g>
</g>
<g>
	<circle class="st8" cx="980.1" cy="200.4" r="25.1"/>
	<circle class="st8" cx="1069.7" cy="200.4" r="25.1"/>
	<circle class="st8" cx="1069.7" cy="200.4" r="25.1"/>
</g>
<g>
	<g>
		<path class="st7" d="M670.9,381.6c0,1.8-0.5,3.4-1.3,4.8l4.2,2.4c1.2-2.1,1.9-4.6,1.9-7.2c0-8-6.5-14.5-14.5-14.5v4.8
			C666.5,372,670.9,376.3,670.9,381.6z"/>
		<path class="st7" d="M651.5,381.6c0-5.3,4.3-9.7,9.7-9.7v-4.8c-8,0-14.5,6.5-14.5,14.5c0,2.6,0.7,5.1,1.9,7.2l4.2-2.4
			C652,385.1,651.5,383.4,651.5,381.6z"/>
		<path class="st7" d="M669.6,386.5c-1.7,2.9-4.8,4.8-8.4,4.8c-3.6,0-6.7-2-8.4-4.8l-4.2,2.4c2.5,4.3,7.2,7.3,12.6,7.3
			s10-2.9,12.6-7.3L669.6,386.5z"/>
	</g>
	<g>
		<rect x="659.7" y="379.8" class="st7" width="3" height="4.8"/>
		<rect x="656.7" y="381.6" class="st7" width="3" height="3"/>
		<rect x="662.7" y="378.6" class="st7" width="3" height="6"/>
	</g>
</g>
</svg>
